<svg enable-background="new 0 0 1613.68 1523.7" viewBox="0 0 1613.68 1523.7" xmlns="http://www.w3.org/2000/svg"><path d="m1567.52 1333.26c0 60.87-337.14 110.21-753.03 110.21s-753.03-49.34-753.03-110.21c0-60.86 337.14-110.2 753.03-110.2 415.89-.01 753.03 49.33 753.03 110.2z" fill="#b3b3b3"/><path d="m698.98 830.61c.89 11.54-5.32 56.82 0 85.22 5.33 28.41 77.61 119.24 80.27 164.52 2.66 45.27-36.96 58.65-63.66 62.56-11.7 1.71-39.9 8.85-31.73 26.67 8.51 18.54 26.9 27.65 57.48 27.65 55.04 0 66.83-.89 66.83-19.53 0-18.65 10.65-31.07 8.88-47.94s-11.54-39.06-13.31-64.8c-1.78-25.75.89-75.46-1.78-81.67-2.67-6.2-102.98-152.68-102.98-152.68z" fill="#a89591"/><path d="m1134.72 1105.29c-2.36 60.36-29.42 96.02-80.46 100.46-105.96 9.21-165.34 9.7-201.75 4.73-2.84-.39-5.55-.81-8.11-1.26-40.86-7.17-49.23-22.31-70.06-39.12-42.95-34.65-78.65-77.99-121.45-129.3-.05-.06-.09-.12-.14-.17-23.52-28.19-49.18-58.79-79.37-91.66-.87-.97-1.76-1.93-2.65-2.89-63.33-68.64-80.63-143.93-66.43-216.72 9.78-50.09 40.99-101.31 51.09-148.3 2.06-9.52 3.25-18.86 3.21-27.98-.02-3.83-.24-7.63-.71-11.38 0 0 273.82-53.68 268.49-16.4-1.25 8.75-1.46 17.54-.66 26.4 1.29 14.29 5.2 28.76 11.57 43.55.51 1.17 1.02 2.35 1.56 3.51 6.34 13.93 14.85 28.16 25.4 42.83 38.62 53.7 40.25 89.66 50.9 112.73 9.21 19.94 60.79 76.96 105.56 131.01 7.07 8.54 13.97 16.99 20.5 25.22 9.92 12.5 19.87 25.04 29.37 37.71 0 0 .01.01.03.03 36.42 48.53 66.38 99.03 64.11 157z" fill="#e0c7c1"/><path d="m633.13 1204.41c0 10.88-5.85 14.98-21.46 17.85-13.49 2.48-18.27-1.97-20.53-2.8 0 0-.01 0-.02-.01-.22-.08-.42-.13-.6-.13-1.54 0-7.93 4.62-29.3 4.62-.65 0-1.29-.01-1.9-.03-10.35-.28-15.28-2.9-17.17-3.33 0 0-.05-.01-.12-.03-.2-.04-.36-.04-.49-.01-1.34.32-8.66 4.37-22.02 1.92-13.6-2.5-14.01-8.5-15.12-20.72-1.77-19.52 20.42-23.08 28.41-24.85 7.99-1.78 21.31-58.59 18.64-103.86-.36-6.11-1.02-12.44-1.92-18.87-5.75-41.23-20.99-87.06-25.6-111.62-2.79-14.92-2.41-34.5-1.54-51.38.07-1.36.15-2.7.22-4.01 0-.09.01-.14.01-.14.76-13.46 1.69-24.71 1.31-29.68 0 0 100.31 146.47 102.97 152.68 2.67 6.22 0 55.93 1.77 81.67s11.54 47.94 13.32 64.81c1.79 16.86-8.86 29.28-8.86 47.92z" fill="#e0c7c1"/><path d="m534.35 1202.77c-1.57 12.15 6.91 17.56 7.68 17.79-.2-.04-.36-.04-.49-.01-1.34.32-8.66 4.37-22.02 1.92 9.17 1.14 9.43-9.37 11.34-18.05 3.79-17.29 18.77-18.51 18.77-17.97 0 .38-13.19.17-15.28 16.32z" fill="#ccb5b0"/><path d="m584.08 1203.46c-1.38 10.96 6.62 15.67 7.03 15.99-.22-.08-.42-.13-.6-.13-1.54 0-7.93 4.62-29.3 4.62-.65 0-1.29-.01-1.9-.03 20.5-.87 20.87-10.22 23.27-21.46 2.87-13.41 11.95-15.26 11.95-15.26s-8.75 2.77-10.45 16.27z" fill="#ccb5b0"/><path d="m852.51 1210.48c-47.97-6.53-50.42-34.07-78.17-40.38-42.95-34.65-78.65-77.99-121.45-129.3-.05-.06-.09-.12-.14-.17-23.52-28.19-49.18-58.79-79.37-91.66-16.46-24.12-26.84-40.3-27.15-40.79 1.86.8 132.18 189.55 198.33 142.84 37.34-26.36 27.32-181.14 27.32-181.14h45.81s45.5 147.72 47.34 161.52c1.15 8.61-6.55 106.53-12.52 179.08z" fill="#ccb5b0"/><path d="m1134.72 1105.29c-2.36 60.36-29.42 96.02-80.46 100.46-105.96 9.21-165.34 9.7-201.75 4.73-2.84-.39-5.55-.81-8.11-1.26-11.44-15.15-19.83-26.99-19.83-26.99l93.99-397.3s7.72 92.91 1.46 179.35c-6.25 86.45 40.49 124.04 85.1 120.47 107.29-8.58 65.47-136.47 65.47-136.47s.01.01.03.03c36.41 48.51 66.37 99.01 64.1 156.98z" fill="#ccb5b0"/><path d="m918.59 785.29s8.06 65.87-4.2 160.29c-12.26 94.41-33.26 161.01-22.38 177.18 5.67 8.43 16.25 15.17 45.22 4.59 21.65-7.9 49.57-18.38 50.01-17.39.57 1.3-81.96 39.62-124.96 52.04-17.73 5.12-25.13-24.53-25.13-26.98-.01-2.45 81.44-349.73 81.44-349.73z" fill="#a89591"/><path d="m785.02 1162.59s-37.68 2.35-44.75 14.74c-3.99 6.97 7.89 34.49 45.91 36.29 38.01 1.79-1.16-51.03-1.16-51.03z" fill="#ccb5b0"/><path d="m907.7 1197.43c1.43 10.76-1.46 15.5-5.32 17.46h-.01c-4.85 2.47-11.23.57-12.51.75-1.77.25-2.81 7.93-27.29 7.93-2.7 0-5.05-.17-7.09-.44-.02 0-.03 0-.05 0-.39-.06-.77-.11-1.13-.17-.26-.05-.5-.09-.74-.13-9.33-1.73-11.09-5.89-11.69-5.89-.39 0-2.12 3.42-10.94 5.26-.02.01-.03.01-.03.01-3.45.72-7.98 1.19-13.93 1.14-6.42-.06-10.73-1.02-13.67-2.12-.01-.01-.02-.01-.03-.02-.15-.05-.29-.11-.44-.17-.02-.01-.05-.02-.07-.03l-.01-.01c-.28-.11-.53-.22-.77-.33-3.2-1.45-4.38-2.94-5.06-2.94-.11 0-.33.05-.64.14-3.98 1.09-23.31 7.77-24.41-16.45-.49-10.65 3.99-22.64 6.66-27.97 2.66-5.32 2.67-78.56 0-101.18-2.66-22.65 22.63-66.58 23.96-87.89s-30.62-114.51-30.62-114.51 128.86-168.08 140.48-122.87c30.04 116.82-37.94 350.57-35.28 385.19 2.67 34.62 28.12 46.36 30.63 65.24z" fill="#e0c7c1"/><path d="m837.3 595.26c-3.93 31.72-21.35 53.46-48.13 62.32-29.2 9.66-20.54 116.32-25.58 116.33-7.24.01-42.47-128.75-167.14-164.31-39-11.13-41.03-28.52-41.03-28.52l-.01-.01c2.06-9.52 3.25-18.86 3.21-27.98 63.72-4.21 211.7-12.34 267.12-1.39 1.27 14.3 5.18 28.77 11.56 43.56z" fill="#ccb5b0"/><path d="m562.41 351.82c4.52-24.32-24.63-31.86-25.52-52.96s10.41-44.62 6.22-75.73c-1.91-14.18-24.88-125.62 29.94-146.91s127.39 76.89 122.83 170.21c-4.55 93.32-133.47 105.39-133.47 105.39z" fill="#281e18"/><path d="m589.35 312.38c.54-2.12-24.46-9.89-23.87-32.5.63-24.53 13.3-39.89 2.62-85.29-11.18-47.51 1.18-75.91 14.84-84.07 27.43-16.39 57.07 18.8 73.92 66.4 11.25 31.79 19.1 81.42 1.16 115.22-7.33 13.81-68.67 20.24-68.67 20.24z" fill="#c69991"/><path d="m876.19 431.16c7.59-23.55 36.82-16.32 47.63-34.46s12.05-44.2 30.52-69.59c8.42-11.57 81.61-98.7 43.5-143.49-38.11-44.78-148.63 7.09-188.98 91.37-40.36 84.27 67.33 156.17 67.33 156.17z" fill="#281e18"/><path d="m871.23 383.65c.53-2.12 26.21 2.92 36.45-17.24 11.11-21.88 7.26-41.42 38.23-76.29 32.42-36.49 35.05-67.35 26.91-81.02-16.34-27.45-59.14-10.58-96.6 23.28-25.01 22.62-55.5 62.56-55.79 100.82-.11 15.64 50.8 50.45 50.8 50.45z" fill="#c69991"/><path d="m867.75 499.7c-11.59 45.71-43.52 72.96-49.5 82.11-.22.34-.46.71-.73 1.12-5.79 9.02-21.5 33.92-54.94 41.9-4.67 1.12-8.86 1.82-12.76 2.15-14.47-6.82-25.42-22.1-33.92-40.51-17.71-38.4-23.63-60.59-30.17-62.57-6.7-1.36-22.46 15.34-56.3 40.7-16.21 12.15-33.09 20.38-49.04 19.52-3.31-2.16-6.69-4.76-10.26-7.96-25.63-22.93-27.61-52.31-28.41-62.98-.04-.48-.07-.92-.1-1.32-.91-10.9-16.06-50.05-4.52-95.78 6.08-24.13 18.3-35.86 20.73-44.41 2.44-8.52 7.02-62.07 51.83-94.87 40.85-29.9 101.53-19.69 136.7-11.15 1.52.37 2.98.73 4.4 1.09 1.38.35 2.82.73 4.29 1.1 34.96 9.19 93.31 29.05 115.05 74.81 23.83 50.16 2.41 99.44.5 108.11-1.9 8.68 3.27 24.8-2.85 48.94z" fill="#281e18"/><path d="m699.99 539.98c-13.99 23.63-26.23 41.71-28.7 41.08-2.42-.61-8.17-19.34-12.9-43.96-8.91-46.4-14.18-113.7 13.39-119.77 4.54-1 10.06-1.71 16.22-6.95 4.8-4.09 10-10.95 15.41-22.88 17.83-39.24 33.13-95.89 42.96-121.85 1.52.37 2.98.73 4.4 1.09 1.38.35 2.82.73 4.29 1.1-3.8 26.04-16.77 79.54-20.54 129.97-.87 11.63-.36 19.03 1.11 24.11 2.12 7.35 6.25 9.89 11.19 13.45 7.32 5.29-22.43 63.4-46.83 104.61z" fill="#efdbd5"/><path d="m739.78 609.3c-2.19 2.26-4.3 3.88-6.43 4.96-.55.28-1.11.52-1.67.73-11.9 4.42-26.2-6.55-65.09-16.38-35.55-8.99-52.56-6.85-63.17-16.83-.48-.45-.94-.92-1.39-1.42-2.04-2.24-3.83-5.03-5.49-8.54-.8-1.7 3.66-7.41 12-14.7 6.94-6.05 16.55-13.2 28.07-20.03 22.34-13.25 54.06-48.22 56.3-47.65 2.28.57 10.75 41.99 23.31 63.68 14.83 25.67 26.33 53.32 23.56 56.18z" fill="#e0c7c1"/><path d="m629.91 394.83c-.38 1.51-10.4 19.35-29.38 14.55-12.19-3.08-16.72-12.19-18.28-18.95-.92-3.98-.82-7.14-.65-7.81.09-.35.73-1.74 1.95-3.56.26-.37.54-.76.84-1.17 4.1-5.51 12.78-13.31 26.59-9.82 9.61 2.43 14.43 8.82 16.78 14.76 2.37 5.96 2.29 11.45 2.15 12z" fill="#ffeed7"/><path d="m627.28 385.09c-3.58 14.14-16.09 23.18-27.93 20.18-10.5-2.65-16.95-13.85-15.8-26.22.26-.37.54-.76.84-1.17 4.1-5.51 12.78-13.31 26.59-9.82 9.61 2.43 14.43 8.82 16.78 14.76-.13.76-.29 1.52-.48 2.27z" fill="#5f2e0d"/><path d="m581.6 382.62c-.2.77 9.28-19.63 29.38-14.55 19.89 5.03 18.84 27.14 18.93 26.77.1-.38 3.66-22.54-18.58-28.16-21.75-5.51-29.58 15.35-29.73 15.94z" fill="#100e0c"/><path d="m617.67 385.75c-1.82 7.2-9.13 11.56-16.34 9.74-7.2-1.82-11.56-9.13-9.75-16.34 1.82-7.2 9.14-11.56 16.34-9.74 7.21 1.82 11.57 9.13 9.75 16.34z" fill="#130e0b"/><path d="m597.93 385.03c-.28 1.08-1.38 1.75-2.47 1.47s-1.74-1.38-1.47-2.47 1.38-1.74 2.47-1.47 1.75 1.38 1.47 2.47z" fill="#ffeed7"/><path d="m607.61 377.79c-.55 2.18-2.76 3.49-4.93 2.94s-3.49-2.75-2.94-4.92c.55-2.18 2.76-3.49 4.93-2.94 2.17.54 3.49 2.75 2.94 4.92z" fill="#ffeed7"/><path d="m798.6 437.49c-.38 1.52-.05 21.97 18.93 26.77 12.19 3.08 20.51-2.77 25.1-7.99 2.7-3.06 4.12-5.89 4.28-6.56.09-.35.19-1.88-.02-4.06-.05-.45-.11-.93-.18-1.43-.99-6.79-4.92-17.79-18.73-21.28-9.61-2.43-16.88.89-21.78 5-4.92 4.12-7.46 9-7.6 9.55z" fill="#ffeed7"/><path d="m805.54 430.17c-3.58 14.15 3.14 28.04 14.98 31.03 10.49 2.65 21.49-4.13 26.36-15.56-.05-.45-.11-.93-.18-1.43-.99-6.79-4.92-17.79-18.73-21.28-9.61-2.43-16.88.89-21.78 5-.24.75-.45 1.49-.65 2.24z" fill="#5f2e0d"/><path d="m846.91 449.71c-.19.78 1.17-21.68-18.93-26.76-19.89-5.04-29.47 14.92-29.38 14.54s7.49-21.57 29.74-15.95c21.75 5.51 18.72 27.58 18.57 28.17z" fill="#100e0c"/><path d="m813.69 435.31c-1.82 7.2 2.54 14.51 9.74 16.34s14.51-2.54 16.34-9.74c1.82-7.2-2.54-14.51-9.75-16.34-7.2-1.82-14.51 2.54-16.33 9.74z" fill="#130e0b"/><path d="m831.4 444.06c-.27 1.09.38 2.19 1.47 2.46 1.09.28 2.19-.38 2.47-1.47.27-1.08-.38-2.19-1.47-2.47-1.09-.27-2.2.39-2.47 1.48z" fill="#ffeed7"/><path d="m826.32 433.09c-.55 2.17.77 4.38 2.94 4.94 2.17.55 4.38-.77 4.93-2.94.55-2.18-.77-4.38-2.94-4.93-2.17-.56-4.38.76-4.93 2.93z" fill="#ffeed7"/><path d="m699.99 539.98c-5.55-13.32-9.05-20.9-12.75-22.02-4.54-.92-13.23 6.43-28.86 19.15-8.91-46.4-14.18-113.7 13.39-119.77 4.54-1 10.06-1.71 16.22-6.95 7.61.17 16.05 1.33 25.52 3.68 8.5 2.18 15.81 4.82 22.12 7.86 2.12 7.35 6.25 9.89 11.19 13.45 7.32 5.28-22.43 63.39-46.83 104.6z" fill="#e0c7c1"/><path d="m686.11 524.33-.9-.23 8.31-32.85.89.23z"/><path d="m733.34 614.26c-.55.28-1.11.52-1.67.73-11.9 4.42-26.2-6.55-65.09-16.38-35.55-8.99-52.56-6.85-63.17-16.83-.48-.45-.94-.92-1.39-1.42-2.04-2.24-3.83-5.03-5.49-8.54-.8-1.7 3.66-7.41 12-14.7l54.46-17.15s-24.23 22.79-18.23 36.65c5.76 13.32 75.36 41.94 88.58 37.64z" fill="#ccb5b0" opacity=".7"/><path d="m793.14 623.71c-17.19 8.77-31.43 8.88-43.31 3.28-14.47-6.82-25.42-22.1-33.92-40.51-17.71-38.4-23.63-60.59-30.17-62.57-6.7-1.36-22.46 15.34-56.3 40.7-16.21 12.15-33.09 20.38-49.04 19.52-13.13-.7-25.63-7.56-36.6-23.47-9.51-13.81-8.5-32.97-2.07-47.48 2.52-5.69 5.86-10.66 9.74-14.32 17.93-16.95 41.19-18.53 55.63-33.49 25.96-26.9 44.83-60.3 104.9-45.35 59.96 15.4 60.67 53.75 70.73 89.76 5.6 20.04 25.31 32.48 33.03 55.92 1.67 5.06 2.25 11.03 1.75 17.23-1.23 15.83-9.44 33.16-24.37 40.78z" fill="#efdbd5"/><g fill="#b3a4a0"><path d="m654.41 493.58c.04 1.42-1.66 2.64-3.82 2.71s-3.94-1.03-3.99-2.45c-.05-1.43 1.67-2.63 3.83-2.71 2.15-.07 3.94 1.02 3.98 2.45z"/><path d="m633.36 503.84c.05 1.42-1.67 2.64-3.82 2.71-2.16.07-3.94-1.03-3.99-2.46-.05-1.42 1.66-2.64 3.82-2.71 2.15-.07 3.94 1.04 3.99 2.46z"/><path d="m614.49 497.89c.04 1.42-1.67 2.64-3.82 2.71-2.16.07-3.94-1.03-3.99-2.45-.04-1.43 1.67-2.64 3.82-2.71s3.94 1.02 3.99 2.45z"/><path d="m623.41 519.94c.05 1.43-1.66 2.64-3.82 2.71s-3.95-1.03-3.99-2.45c-.05-1.43 1.66-2.64 3.82-2.72 2.15-.06 3.94 1.03 3.99 2.46z"/><path d="m648.46 516.76c.05 1.42-1.67 2.63-3.82 2.71-2.16.07-3.95-1.03-3.99-2.45-.05-1.43 1.66-2.64 3.82-2.71 2.15-.08 3.94 1.02 3.99 2.45z"/><path d="m723.51 512.33c-.72 1.24.21 3.12 2.07 4.2 1.87 1.09 3.96.97 4.68-.26s-.21-3.11-2.07-4.2c-1.87-1.09-3.96-.97-4.68.26z"/><path d="m737.16 531.36c-.72 1.24.21 3.12 2.07 4.21s3.96.97 4.68-.27c.72-1.23-.21-3.11-2.07-4.2-1.87-1.08-3.97-.97-4.68.26z"/><path d="m756.59 535.1c-.72 1.23.21 3.11 2.08 4.2 1.86 1.09 3.96.97 4.68-.25.72-1.24-.21-3.12-2.08-4.21s-3.97-.97-4.68.26z"/><path d="m738.25 550.26c-.72 1.23.21 3.11 2.07 4.2 1.87 1.09 3.96.97 4.68-.26s-.21-3.11-2.07-4.2c-1.87-1.09-3.95-.97-4.68.26z"/><path d="m717.73 535.55c-.72 1.23.21 3.11 2.08 4.19 1.86 1.09 3.96.97 4.68-.26s-.21-3.11-2.08-4.21c-1.87-1.07-3.96-.95-4.68.28z"/></g><path d="m662.45 455.87s4.74 12.84 4.1 21.92c-.64 9.09-17.34 51.79.2 66.53 14.38 12.08 33.47 11.18 43.2-8.11 9.2-18.23 13.05-50.23 28.36-60.68 5.01-3.4-75.86-19.66-75.86-19.66z" fill="#e0c7c1"/><path d="m666.98 463.6s7.99 16.81 7.66 28.18c-.56 19.5-14.96 43.64 6.79 49.14 23.31 5.9 23.05-23.71 30.54-38.94 5.98-12.17 19.8-22.62 19.8-22.62z" fill="#a58884"/><path d="m734.25 478.23c-10.62 4.82-17.91 15.63-28.87 18.8-3.73 1.08-7.89 1.28-12.76.05-5.68-1.44-9.41-3.9-12.14-7.05-6.5-7.43-7.43-18.71-15.53-29.33-10.81-14.22 10.03-26.86 41.64-18.87 30.07 7.61 43.93 29.03 27.66 36.4z" fill="#281e18"/><path d="m690.21 469.12c-6.94 5.11-16.72 3.62-21.83-3.32-5.11-6.95 4.91 4.99 11.86-.13 6.95-5.11 4.12-19.32 13.3-18.39 10.19 1.05 3.62 16.73-3.33 21.84z" fill="#0a0503"/><path d="m708.01 473.62c3.68 7.8 12.99 11.14 20.79 7.46 7.8-3.69-6.69 2.05-10.37-5.75s5.56-18.96-2.97-22.5c-9.46-3.93-11.13 13-7.45 20.79z" fill="#0a0503"/><path d="m705.38 497.03c-3.73 1.08-7.89 1.28-12.76.05-5.68-1.44-9.41-3.9-12.14-7.05.75.4 9.39 6.22 13.54-2.75 3.83-8.27 11.17-42.27 12.09-42.04.86.22-8.79 30.91-9.34 42.97-.36 7.95 5.27 8.33 8.61 8.82z" fill="#0a0503"/><path d="m733.34 614.26c-.55.28-10.27-10.32-18.26-27.4-16.83-35.97-22.03-51.93-31.51-54.33-9.54-2.41-21.62 7.45-52.73 32.12-12.85 10.19-28.36 16.22-28.81 15.71 9.17-3.43 18.4-8.98 27.43-15.75 33.84-25.36 49.59-42.06 56.3-40.7 6.55 1.99 12.46 24.17 30.18 62.57 4.89 10.65 10.51 20.8 17.4 27.78z" fill="#383230"/><path d="m738.65 434.62c-.33 1.32-12.96-4.36-28.71-8.34-15.75-3.99-28.66-4.77-28.33-6.08s14.64-4.18 30.39-.2c15.76 3.98 26.98 13.31 26.65 14.62z" fill="#fcf8f7"/><path d="m1020.72 885.35c-18.22 19.73-41.83-19.49-70.16-59.03-39.55-55.18-40.01 18.21-56.56 16.09-16.01-2.04-20.56-20.54-43.38-27.13-21.87-6.31-68.36-1.23-65.91-44.75 3.1-55.01 64.97-51.06 66.52-88.13 1.38-33.11-14.02-65.67-12.38-83.63 6.34 13.93 14.85 28.16 25.4 42.83 38.62 53.7 40.25 89.66 50.9 112.73 9.22 19.95 60.8 76.97 105.57 131.02z" fill="#281e18"/><path d="m573.25 1022.21c-1.28 15.79-22.7 10.46-23.72 31.95-5.75-41.23-20.99-87.06-25.6-111.62-2.79-14.92-2.41-34.5-1.54-51.38-.2 7.6 5.03 35.57 10.88 51.04 12.96 34.27 41.75 58.1 39.98 80.01z" fill="#281e18"/><path d="m801.99 1220.68c-3.2-1.45-4.38-2.94-5.06-2.94-.11 0-.33.05-.64.14 0 0 5.05-2.86 5.05-15.31 0-15.11-3.67-23.91-2.87-23.91s3.72 12.64 4.02 24.37c.27 10.32-3.5 15.87-.5 17.65z" fill="#ccb5b0"/><path d="m803.29 1221.21c-.15-.05-.29-.11-.44-.17.18.07.33.12.44.17z" fill="#ccb5b0"/><path d="m853.57 1222.84c-9.33-1.73-11.09-5.89-11.69-5.89-.39 0-2.12 3.42-10.94 5.26.47-.18 9.3-3.42 9.18-17.67-.15-18.24-6.37-29.5-5.59-29.5.71 0 5.37 8.07 7.36 27.51 1.05 10.22 5.87 18.9 11.68 20.29z" fill="#ccb5b0"/><path d="m855.44 1223.13c-.39-.06-.77-.11-1.13-.17.42.05.79.1 1.13.17z" fill="#ccb5b0"/><path d="m902.37 1214.9c-4.85 2.47-11.23.57-12.51.75 0 0 4.11-4.42 1.15-17.89-3.3-14.98-17.4-25.48-16.94-26.09s12.57 7.89 17.94 25.35c4.19 13.58 5.7 19.18 10.36 17.88z" fill="#ccb5b0"/><path d="m880.39 327.47c-21.21 19.21-53.99 17.61-73.21-3.61-19.22-21.21-17.6-53.98 3.6-73.2 21.21-19.22 53.99-17.61 73.21 3.6 19.23 21.21 17.61 53.99-3.6 73.21z" fill="#f3f9fd"/><path d="m905.43 382.55c-16.55 15-42.12 13.74-57.12-2.82-15-16.55-13.74-42.12 2.81-57.12s42.12-13.74 57.12 2.81c15 16.57 13.74 42.14-2.81 57.13z" fill="#f3f9fd"/><path d="m836.63 250.99c-14.24 12.9-36.23 11.81-49.13-2.42-12.9-14.24-11.82-36.23 2.42-49.13s36.23-11.82 49.13 2.41c12.9 14.25 11.81 36.24-2.42 49.14z" fill="#f3f9fd"/><path d="m800.88 307.13c-20.94 18.98-53.31 17.38-72.28-3.56-18.98-20.94-17.38-53.3 3.56-72.28s53.3-17.39 72.28 3.55c18.98 20.95 17.38 53.32-3.56 72.29z" fill="#f3f9fd"/><path d="m1416.05 858.86c-13.51 0-26.22 3.43-37.31 9.47-7.61-3.32-16.01-5.18-24.85-5.18-6.9 0-13.54 1.15-19.75 3.22-2.27-12.89-13.52-22.69-27.07-22.69-13.57 0-24.83 9.84-27.08 22.76-12.15-7.79-26.58-12.33-42.09-12.33-17.78 0-34.17 5.95-47.3 15.96-1.57-20.92-13.5-38.95-30.68-48.99 2.78-4.29 4.4-9.41 4.4-14.91 0-15.18-12.31-27.5-27.5-27.5-10.32 0-19.3 5.69-24 14.09-12.97-9.58-29-15.25-46.35-15.25-25.17 0-47.54 11.91-61.83 30.4-4.58-8.83-13.79-14.87-24.42-14.87-10.51 0-19.64 5.9-24.26 14.57-10.96-17.69-30.54-29.47-52.87-29.47-34.29 0-62.09 27.76-62.16 62.04-2.9-.33-5.83-.51-8.82-.51-8.1 0-15.92 1.24-23.27 3.53.1-.95.15-1.91.15-2.89 0-15.18-12.31-27.49-27.49-27.49s-27.5 12.31-27.5 27.49c0 2.2.27 4.34.75 6.39-2.79-.38-5.63-.6-8.52-.6-11.1 0-21.51 2.92-30.53 8.02-14.11-20.29-37.57-33.58-64.16-33.58-17.99 0-34.55 6.1-47.75 16.32-2.54-.25-5.11-.38-7.71-.38-2.29 0-4.55.12-6.79.31.53-2.12.81-4.35.81-6.63 0-15.18-12.31-27.49-27.49-27.49-8.24 0-15.64 3.63-20.67 9.38-11.11-16.93-30.24-28.11-52-28.11-11.52 0-22.3 3.14-31.54 8.6-14.26-18.82-36.85-30.98-62.28-30.98-34.02 0-62.94 21.75-73.65 52.1-3.68-.68-7.46-1.05-11.33-1.05-17.58 0-33.44 7.3-44.75 19.03-6.52-27.36-31.1-47.7-60.45-47.7-26.63 0-49.34 16.75-58.2 40.29-10.19-7.31-22.67-11.62-36.17-11.62-34.33 0-62.16 27.83-62.16 62.17 0 34.33 27.83 62.17 62.16 62.17 8.95 0 17.46-1.91 25.15-5.32 6.3 27.66 31.02 48.31 60.6 48.31 34.33 0 62.16-27.83 62.16-62.16 0-3.25-.25-6.44-.73-9.55 11.05 17.26 30.37 28.72 52.38 28.72 21.21 0 39.94-10.63 51.16-26.86 2.5 1.21 5.08 2.27 7.72 3.21 5.27 38.01 37.88 67.29 77.34 67.29 32.86 0 60.96-20.3 72.5-49.04 7.74 34.98 38.93 61.15 76.24 61.15 17.99 0 34.55-6.1 47.76-16.32 2.54.25 5.11.38 7.71.38 20.91 0 39.88-8.23 53.9-21.6 10.92 9.51 25.18 15.29 40.8 15.29 8.55 0 16.7-1.73 24.12-4.86 14.29 18.43 36.62 30.3 61.75 30.3 36.37 0 66.94-24.87 75.63-58.52 11.54 28.72 39.63 49.01 72.48 49.01 34.57 0 63.88-22.47 74.16-53.59 3.94.61 7.98.93 12.09.93 10.54 0 20.58-2.09 29.76-5.88 9.44 5.78 20.53 9.11 32.41 9.11 11.4 0 22.07-3.08 31.25-8.44-.06 1.23-.09 2.45-.09 3.69 0 43.14 34.97 78.1 78.1 78.1 30.62 0 57.1-17.63 69.91-43.28 11.38 12.55 27.81 20.44 46.07 20.44.86 0 1.71-.03 2.56-.06 14.33 16.91 35.71 27.65 59.6 27.65 43.14 0 78.1-34.97 78.1-78.1-.01-43.13-34.98-78.09-78.11-78.09z" fill="#f3f9fd"/><path d="m1570.03 1008.91c-13.69 57.78-47.2 125.75-85.94 161.48-14.37 13.25-31.08 25.68-49.84 37.31-.03.03-.03.03-.06.07-50.54 36.46-21.82 116.42-48.86 141.2-7.61 6.97-19.22 6.57-29.38 0-29.18-18.87-56.32-73.27-109.32-65.6-.03.02-.05 0-.06.02-250.03 66.38-605.69 66.51-856.14.39-.42-.1-.64-.15-.64-.15-53-7.69-80.78 46.46-109.96 65.34-10.16 6.57-21.77 6.97-29.37 0-27.05-24.78 1.5-104.63-49.03-141.09-.02-.02-.02-.02-.05-.04-18.82-11.67-35.62-24.15-50.04-37.44-14.48-13.35-28.1-31.19-40.13-51.32-50.9-85-73.82-210.78-15.27-210.78h1446.81c35.37-.01 40.29 45.68 27.28 100.61z" fill="#f4ebd7"/><path d="m1484.09 1170.39c-14.37 13.25-31.08 25.68-49.84 37.31-.03.03-.03.03-.06.07-50.54 36.46-21.82 116.42-48.86 141.2-7.61 6.97-19.22 6.57-29.38 0-29.18-18.87-56.32-73.27-109.32-65.6-.03.02-.05 0-.06.02-250.23 66.42-606.24 66.51-856.73.24-.02 0-.02 0-.05 0-9.78-1.42-18.69-.73-26.91 1.45-.03 0-.05.02-.08.02-36.33 9.68-59.18 48.49-82.96 63.87-10.16 6.57-21.77 6.97-29.37 0-22.45-20.58-6.6-79.1-29.46-119.24-.08-.15-.13-.22-.13-.22-4.68-8.13-10.93-15.49-19.44-21.63-.02-.02-.02-.02-.05-.04-18.82-11.67-35.62-24.15-50.04-37.44-14.34-13.21-27.84-30.85-39.77-50.74 6.71 10.3 134.52 177.35 705.69 151.21 213.44-9.78 464.88-40.52 533.7-161.8 77.31-136.22-488.54-131.01-1289.64-147.13l1481.44-53.65c72.55 0 16.92 192.4-58.68 262.1z" fill="#f2e5cc"/><path d="m1570.03 1008.91c-13.69 57.78-47.2 125.75-85.94 161.48-14.37 13.25-31.08 25.68-49.84 37.31-.03.03-.03.03-.06.07-50.54 36.46-21.82 116.42-48.86 141.2-7.61 6.97-19.22 6.57-29.38 0-29.18-18.87-56.32-73.27-109.32-65.6-.03.02-.05 0-.06.02-250.03 66.38-605.69 66.51-856.14.39 302.66 58.87 1083.9 79.1 1179.61-274.85z" fill="#dbc6a7"/><path d="m478.86 996c0 199.38 227.84 215.39 121.09 215.39s-488.39-24.72-488.39-215.39c0-4.7 67.27-8.52 174.02-8.52s193.28 3.81 193.28 8.52z" fill="#fbf7ef"/><path d="m1616.31 932.22c0-16.4-13.29-29.7-29.69-29.72h-1538.72c-16.42 0-29.72 13.31-29.72 29.72s13.31 29.72 29.72 29.72h1538.72c16.41-.02 29.69-13.32 29.69-29.72z" fill="#f8f3e7"/><path d="m328.6 759.31c0 18.27-14.81 33.08-33.08 33.08s-33.08-14.81-33.08-33.08 14.81-33.08 33.08-33.08c18.27-.01 33.08 14.81 33.08 33.08z" fill="#f3f9fd"/><path d="m999.95 698.09c0 18.27-14.81 33.08-33.08 33.08s-33.08-14.81-33.08-33.08 14.81-33.08 33.08-33.08 33.08 14.82 33.08 33.08z" fill="#f3f9fd"/><path d="m451.52 693.15c0 15.54-12.59 28.13-28.13 28.13s-28.13-12.59-28.13-28.13 12.59-28.14 28.13-28.14 28.13 12.6 28.13 28.14z" fill="#f3f9fd"/><path d="m1251.5 802.04c0 15.54-12.59 28.13-28.13 28.13s-28.13-12.59-28.13-28.13 12.59-28.13 28.13-28.13c15.53 0 28.13 12.6 28.13 28.13z" fill="#f3f9fd"/><path d="m157.35 749.41c0 10.75-8.71 19.46-19.46 19.46s-19.46-8.71-19.46-19.46c0-10.74 8.71-19.46 19.46-19.46s19.46 8.72 19.46 19.46z" fill="#f3f9fd"/><path d="m1395.47 773.91c0 10.75-8.71 19.46-19.46 19.46s-19.46-8.71-19.46-19.46c0-10.74 8.71-19.46 19.46-19.46s19.46 8.72 19.46 19.46z" fill="#f3f9fd"/><path d="m1073.96 731.17c0 10.75-8.71 19.46-19.46 19.46s-19.46-8.71-19.46-19.46c0-10.74 8.71-19.46 19.46-19.46s19.46 8.72 19.46 19.46z" fill="#f3f9fd"/></svg>