<svg enable-background="new 0 0 1613.68 1523.7" viewBox="0 0 1613.68 1523.7" xmlns="http://www.w3.org/2000/svg"><path d="m1552.65 1311.21c0 60.86-337.14 110.21-753.03 110.21-415.89-.01-753.03-49.35-753.03-110.21 0-60.87 337.14-110.21 753.03-110.21 415.88 0 753.03 49.34 753.03 110.21z" fill="#b3b3b3"/><path d="m729.47 931.34c.89 11.54-5.33 56.82 0 85.22 5.33 28.41 77.61 119.24 80.27 164.52 2.66 45.27-36.96 58.65-63.66 62.56-11.7 1.71-39.9 8.85-31.73 26.67 8.51 18.54 26.9 27.66 57.48 27.66 55.04 0 66.83-.89 66.83-19.53 0-18.65 10.65-31.07 8.88-47.94-1.78-16.87-11.54-39.06-13.31-64.8-1.78-25.75.89-75.46-1.78-81.67s-102.98-152.69-102.98-152.69z" fill="#a89591"/><path d="m1165.2 1206.01c-2.36 60.36-29.42 96.02-80.46 100.46-105.96 9.21-165.34 9.7-201.75 4.73-2.84-.39-5.55-.81-8.11-1.26-40.86-7.17-49.23-22.31-70.06-39.12-42.95-34.65-78.65-77.99-121.45-129.3-.04-.06-.09-.12-.14-.17-23.51-28.19-49.18-58.79-79.37-91.65-.88-.97-1.76-1.93-2.65-2.89-63.33-68.64-80.63-143.93-66.43-216.72 9.79-50.09 40.99-101.3 51.1-148.3 2.06-9.52 3.25-18.86 3.21-27.98-.02-3.83-.24-7.63-.71-11.38 0 0 273.82-53.68 268.49-16.4-1.25 8.75-1.46 17.54-.66 26.4 1.29 14.29 5.2 28.76 11.57 43.56.51 1.17 1.02 2.35 1.56 3.51 6.34 13.93 14.85 28.16 25.4 42.83 38.62 53.7 40.25 89.66 50.9 112.73 9.21 19.94 60.79 76.96 105.56 131.01 7.07 8.54 13.97 16.99 20.5 25.22 9.92 12.5 19.87 25.04 29.37 37.71 0 0 .01.01.03.03 36.41 48.52 66.38 99.02 64.1 156.98z" fill="#e0c7c1"/><path d="m663.61 1305.14c0 10.88-5.86 14.98-21.46 17.85-13.49 2.48-18.27-1.97-20.53-2.8 0 0-.01 0-.02-.01-.22-.08-.42-.13-.6-.13-1.54 0-7.93 4.62-29.3 4.62-.65 0-1.29-.01-1.89-.03-10.35-.28-15.28-2.9-17.17-3.33 0 0-.04-.01-.12-.03-.2-.04-.36-.04-.49-.01-1.34.32-8.66 4.37-22.02 1.92-13.6-2.5-14.01-8.5-15.12-20.72-1.77-19.52 20.42-23.08 28.41-24.85 7.99-1.78 21.31-58.59 18.64-103.86-.36-6.11-1.02-12.44-1.92-18.87-5.75-41.23-20.99-87.06-25.6-111.62-2.79-14.92-2.41-34.5-1.54-51.38.07-1.36.15-2.7.22-4.01 0-.09.01-.14.01-.14.75-13.46 1.69-24.71 1.31-29.68 0 0 100.31 146.46 102.97 152.68 2.67 6.22 0 55.93 1.77 81.67 1.78 25.74 11.54 47.94 13.32 64.81 1.78 16.85-8.87 29.28-8.87 47.92z" fill="#e0c7c1"/><path d="m564.84 1303.5c-1.57 12.15 6.91 17.56 7.68 17.79-.2-.04-.36-.04-.49-.01-1.34.32-8.66 4.37-22.02 1.92 9.17 1.14 9.43-9.37 11.33-18.05 3.79-17.29 18.78-18.51 18.78-17.97 0 .38-13.19.16-15.28 16.32z" fill="#ccb5b0"/><path d="m614.57 1304.18c-1.38 10.96 6.62 15.67 7.04 15.99-.22-.08-.42-.13-.6-.13-1.54 0-7.93 4.62-29.3 4.62-.65 0-1.29-.01-1.89-.03 20.5-.87 20.87-10.22 23.27-21.45 2.87-13.41 11.95-15.26 11.95-15.26s-8.77 2.76-10.47 16.26z" fill="#ccb5b0"/><path d="m882.99 1311.21c-47.97-6.53-50.42-34.07-78.17-40.38-42.95-34.65-78.65-77.99-121.45-129.3-.04-.06-.09-.12-.14-.17-23.51-28.19-49.18-58.79-79.37-91.65-16.46-24.12-26.84-40.3-27.15-40.79 1.86.79 132.18 189.55 198.33 142.84 37.34-26.36 27.32-181.14 27.32-181.14h45.81s45.5 147.72 47.34 161.52c1.16 8.6-6.55 106.52-12.52 179.07z" fill="#ccb5b0"/><path d="m1165.2 1206.01c-2.36 60.36-29.42 96.02-80.46 100.46-105.96 9.21-165.34 9.7-201.75 4.73-2.84-.39-5.55-.81-8.11-1.26-11.44-15.15-19.83-26.99-19.83-26.99l93.99-397.3s7.71 92.91 1.47 179.35c-6.25 86.45 40.49 124.04 85.1 120.47 107.29-8.58 65.47-136.47 65.47-136.47s.01.01.03.03c36.4 48.52 66.37 99.02 64.09 156.98z" fill="#ccb5b0"/><path d="m949.07 886.02s8.06 65.87-4.2 160.29c-12.26 94.41-33.26 161.01-22.38 177.18 5.67 8.43 16.25 15.17 45.22 4.59 21.65-7.9 49.57-18.38 50.01-17.39.57 1.3-81.96 39.62-124.96 52.04-17.73 5.12-25.13-24.52-25.13-26.98-.01-2.45 81.44-349.73 81.44-349.73z" fill="#a89591"/><path d="m815.51 1263.32s-37.68 2.35-44.75 14.74c-3.99 6.97 7.89 34.49 45.91 36.29 38 1.78-1.16-51.03-1.16-51.03z" fill="#ccb5b0"/><path d="m938.18 1298.16c1.43 10.76-1.46 15.5-5.32 17.46h-.01c-4.85 2.47-11.23.57-12.51.75-1.78.25-2.81 7.93-27.29 7.93-2.7 0-5.05-.16-7.09-.44-.02 0-.03-.01-.05-.01-.39-.05-.76-.11-1.13-.16-.26-.05-.5-.09-.74-.13-9.33-1.73-11.09-5.89-11.69-5.89-.38 0-2.11 3.42-10.94 5.26-.02.01-.03.01-.03.01-3.45.72-7.98 1.2-13.93 1.14-6.42-.06-10.73-1.02-13.67-2.12-.01-.01-.02-.01-.03-.02-.14-.05-.29-.11-.44-.17-.02-.01-.05-.02-.07-.03h-.01c-.28-.11-.53-.22-.77-.33-3.2-1.45-4.38-2.94-5.06-2.94-.11 0-.33.05-.64.14-3.98 1.09-23.31 7.77-24.41-16.45-.49-10.64 3.99-22.64 6.66-27.97 2.66-5.32 2.67-78.56 0-101.18-2.66-22.65 22.63-66.58 23.96-87.89 1.34-21.31-30.62-114.51-30.62-114.51s128.84-168.09 140.46-122.88c30.04 116.82-37.94 350.57-35.28 385.19 2.69 34.61 28.15 46.36 30.65 65.24z" fill="#e0c7c1"/><path d="m867.78 695.99c-3.93 31.72-21.35 53.45-48.14 62.32-29.2 9.66-20.54 116.32-25.58 116.33-7.24.01-42.48-128.75-167.14-164.31-39-11.12-41.03-28.52-41.03-28.52l-.01-.01c2.06-9.52 3.25-18.86 3.21-27.98 63.72-4.21 211.7-12.34 267.12-1.39 1.29 14.29 5.2 28.76 11.57 43.56z" fill="#ccb5b0"/><path d="m592.9 452.54c4.52-24.32-24.63-31.86-25.52-52.95-.89-21.1 10.41-44.62 6.22-75.73-1.91-14.18-24.88-125.62 29.94-146.91s127.39 76.89 122.83 170.21-133.47 105.38-133.47 105.38z" fill="#281e18"/><path d="m619.84 413.1c.54-2.12-24.46-9.89-23.88-32.5.63-24.53 13.3-39.89 2.62-85.29-11.18-47.51 1.18-75.91 14.84-84.07 27.43-16.39 57.06 18.8 73.92 66.4 11.25 31.79 19.1 81.42 1.16 115.22-7.33 13.82-68.66 20.24-68.66 20.24z" fill="#c69991"/><path d="m906.67 531.89c7.59-23.55 36.81-16.32 47.62-34.46s12.05-44.2 30.52-69.59c8.42-11.57 81.6-98.7 43.5-143.49-38.11-44.78-148.63 7.09-188.98 91.36-40.34 84.28 67.34 156.18 67.34 156.18z" fill="#281e18"/><path d="m901.72 484.38c.53-2.12 26.21 2.92 36.45-17.24 11.1-21.88 7.26-41.42 38.23-76.29 32.42-36.49 35.05-67.35 26.91-81.02-16.34-27.45-59.15-10.58-96.6 23.28-25.01 22.62-55.51 62.56-55.79 100.82-.11 15.64 50.8 50.45 50.8 50.45z" fill="#c69991"/><path d="m898.23 600.42c-11.59 45.71-43.52 72.96-49.5 82.11-.22.34-.46.71-.73 1.12-5.79 9.02-21.5 33.92-54.94 41.9-4.67 1.12-8.86 1.82-12.76 2.15-14.47-6.82-25.42-22.1-33.92-40.51-17.71-38.4-23.63-60.59-30.17-62.57-6.71-1.36-22.46 15.34-56.3 40.7-16.21 12.15-33.09 20.38-49.04 19.52-3.3-2.16-6.69-4.76-10.26-7.96-25.63-22.93-27.61-52.31-28.41-62.98-.04-.48-.07-.92-.1-1.32-.91-10.9-16.06-50.05-4.53-95.78 6.08-24.13 18.3-35.86 20.73-44.41 2.44-8.52 7.02-62.07 51.83-94.87 40.85-29.9 101.54-19.69 136.7-11.15 1.52.37 2.98.73 4.4 1.09 1.38.35 2.82.73 4.29 1.1 34.96 9.19 93.31 29.05 115.05 74.81 23.83 50.16 2.41 99.44.5 108.11-1.89 8.69 3.28 24.81-2.84 48.94z" fill="#281e18"/><path d="m730.47 640.71c-14 23.63-26.23 41.71-28.71 41.09-2.41-.61-8.17-19.34-12.9-43.96-8.91-46.4-14.18-113.7 13.39-119.77 4.54-1 10.06-1.71 16.22-6.95 4.8-4.09 10-10.95 15.41-22.88 17.83-39.24 33.13-95.89 42.96-121.85 1.52.37 2.98.73 4.4 1.09 1.38.35 2.82.73 4.29 1.1-3.79 26.04-16.77 79.53-20.54 129.97-.87 11.63-.36 19.03 1.12 24.11 2.12 7.35 6.25 9.89 11.19 13.45 7.33 5.28-22.42 63.39-46.83 104.6z" fill="#efdbd5"/><path d="m770.26 710.03c-2.2 2.26-4.3 3.88-6.44 4.96-.55.28-1.11.52-1.67.73-11.9 4.42-26.2-6.55-65.09-16.38-35.55-8.99-52.56-6.85-63.17-16.83-.47-.45-.94-.92-1.39-1.42-2.04-2.24-3.83-5.03-5.49-8.54-.8-1.7 3.65-7.41 12-14.7 6.94-6.05 16.55-13.2 28.07-20.03 22.34-13.25 54.06-48.22 56.29-47.65 2.28.57 10.75 41.99 23.31 63.68 14.86 25.67 26.35 53.31 23.58 56.18z" fill="#e0c7c1"/><path d="m660.39 495.56c-.38 1.51-10.4 19.35-29.38 14.55-12.19-3.08-16.72-12.19-18.28-18.95-.92-3.98-.82-7.14-.65-7.81.09-.35.73-1.74 1.95-3.56.26-.37.54-.76.84-1.17 4.1-5.51 12.78-13.31 26.59-9.82 9.61 2.43 14.42 8.82 16.78 14.76 2.38 5.95 2.29 11.45 2.15 12z" fill="#ffeed7"/><path d="m657.76 485.82c-3.58 14.14-16.09 23.18-27.93 20.18-10.49-2.65-16.95-13.85-15.8-26.22.26-.37.54-.76.84-1.17 4.1-5.51 12.78-13.31 26.59-9.82 9.61 2.43 14.42 8.82 16.78 14.76-.12.76-.29 1.51-.48 2.27z" fill="#5f2e0d"/><path d="m612.08 483.35c-.2.77 9.28-19.63 29.38-14.55 19.89 5.03 18.83 27.14 18.93 26.77.1-.38 3.66-22.54-18.58-28.16-21.75-5.51-29.58 15.34-29.73 15.94z" fill="#100e0c"/><path d="m648.16 486.47c-1.82 7.2-9.13 11.56-16.34 9.74-7.2-1.82-11.56-9.13-9.74-16.34 1.82-7.2 9.14-11.56 16.34-9.74 7.2 1.83 11.56 9.14 9.74 16.34z" fill="#130e0b"/><path d="m628.42 485.75c-.28 1.08-1.38 1.75-2.47 1.47s-1.74-1.38-1.47-2.47c.27-1.08 1.38-1.74 2.46-1.47 1.09.28 1.75 1.39 1.48 2.47z" fill="#ffeed7"/><path d="m638.09 478.52c-.55 2.18-2.75 3.49-4.93 2.94-2.17-.55-3.49-2.75-2.94-4.93.55-2.17 2.76-3.49 4.93-2.94 2.18.55 3.49 2.76 2.94 4.93z" fill="#ffeed7"/><path d="m829.09 538.22c-.38 1.52-.05 21.97 18.93 26.77 12.19 3.08 20.51-2.77 25.1-7.99 2.7-3.06 4.12-5.89 4.29-6.56.09-.35.19-1.88-.03-4.06-.05-.45-.11-.93-.18-1.43-.99-6.79-4.92-17.79-18.73-21.28-9.61-2.43-16.88.89-21.78 5-4.93 4.12-7.46 8.99-7.6 9.55z" fill="#ffeed7"/><path d="m836.03 530.9c-3.58 14.15 3.14 28.04 14.98 31.03 10.49 2.65 21.49-4.13 26.36-15.56-.05-.45-.11-.93-.18-1.43-.99-6.79-4.92-17.79-18.73-21.28-9.61-2.43-16.88.89-21.78 5-.24.74-.46 1.48-.65 2.24z" fill="#5f2e0d"/><path d="m877.39 550.43c-.19.78 1.17-21.68-18.93-26.76-19.89-5.04-29.48 14.92-29.38 14.54.09-.38 7.49-21.57 29.74-15.95 21.75 5.51 18.73 27.58 18.57 28.17z" fill="#100e0c"/><path d="m844.17 536.04c-1.82 7.2 2.54 14.51 9.74 16.34 7.2 1.82 14.52-2.54 16.34-9.74s-2.54-14.51-9.74-16.34c-7.2-1.82-14.52 2.53-16.34 9.74z" fill="#130e0b"/><path d="m861.88 544.79c-.27 1.09.38 2.19 1.47 2.46 1.09.28 2.19-.38 2.46-1.47.27-1.08-.38-2.19-1.47-2.47-1.08-.27-2.18.39-2.46 1.48z" fill="#ffeed7"/><path d="m856.81 533.82c-.55 2.17.77 4.38 2.94 4.93s4.38-.78 4.93-2.94c.55-2.18-.77-4.38-2.94-4.93-2.18-.55-4.38.77-4.93 2.94z" fill="#ffeed7"/><path d="m730.47 640.71c-5.55-13.32-9.05-20.9-12.75-22.02-4.54-.92-13.23 6.43-28.86 19.15-8.91-46.4-14.18-113.7 13.39-119.77 4.54-1 10.06-1.71 16.22-6.95 7.62.17 16.05 1.33 25.52 3.68 8.5 2.18 15.81 4.82 22.12 7.86 2.12 7.35 6.25 9.89 11.19 13.45 7.33 5.28-22.42 63.39-46.83 104.6z" fill="#e0c7c1"/><path d="m716.59 625.05-.89-.23 8.31-32.84.89.22z"/><path d="m763.83 714.99c-.55.28-1.11.52-1.67.73-11.9 4.42-26.2-6.55-65.09-16.38-35.55-8.99-52.56-6.85-63.17-16.83-.47-.45-.94-.92-1.39-1.42-2.04-2.24-3.83-5.03-5.49-8.54-.8-1.7 3.65-7.41 12-14.7l54.46-17.15s-24.23 22.79-18.23 36.65c5.76 13.32 75.36 41.94 88.58 37.64z" fill="#ccb5b0" opacity=".7"/><path d="m823.63 724.43c-17.19 8.77-31.43 8.88-43.32 3.28-14.47-6.82-25.42-22.1-33.92-40.51-17.71-38.4-23.63-60.59-30.17-62.57-6.71-1.36-22.46 15.34-56.3 40.7-16.21 12.15-33.09 20.38-49.04 19.52-13.13-.7-25.63-7.56-36.6-23.47-9.51-13.81-8.5-32.97-2.07-47.48 2.52-5.69 5.87-10.66 9.74-14.32 17.93-16.95 41.19-18.53 55.63-33.49 25.97-26.9 44.83-60.3 104.91-45.35 59.96 15.4 60.67 53.75 70.73 89.76 5.6 20.04 25.31 32.48 33.03 55.92 1.67 5.06 2.25 11.03 1.75 17.23-1.24 15.84-9.45 33.16-24.37 40.78z" fill="#efdbd5"/><path d="m684.9 594.31c.04 1.42-1.67 2.64-3.82 2.71-2.16.07-3.94-1.03-3.99-2.45-.05-1.43 1.67-2.63 3.83-2.71 2.14-.08 3.93 1.02 3.98 2.45z" fill="#b3a4a0"/><path d="m663.84 604.57c.05 1.42-1.66 2.64-3.82 2.71s-3.94-1.03-3.99-2.46c-.04-1.42 1.66-2.64 3.82-2.71s3.94 1.03 3.99 2.46z" fill="#b3a4a0"/><path d="m644.97 598.61c.04 1.42-1.67 2.64-3.82 2.71-2.16.07-3.94-1.03-3.99-2.45-.04-1.43 1.67-2.64 3.82-2.71 2.16-.07 3.94 1.03 3.99 2.45z" fill="#b3a4a0"/><path d="m653.9 620.67c.05 1.43-1.66 2.64-3.82 2.71s-3.95-1.03-3.99-2.45c-.05-1.43 1.66-2.64 3.82-2.72 2.15-.07 3.94 1.03 3.99 2.46z" fill="#b3a4a0"/><path d="m678.94 617.48c.05 1.42-1.67 2.63-3.82 2.71-2.16.07-3.95-1.03-3.99-2.45-.05-1.43 1.66-2.64 3.82-2.71s3.95 1.03 3.99 2.45z" fill="#b3a4a0"/><path d="m753.99 613.05c-.72 1.24.21 3.12 2.07 4.2 1.87 1.09 3.96.97 4.68-.26s-.21-3.11-2.07-4.2-3.96-.96-4.68.26z" fill="#b3a4a0"/><path d="m767.64 632.09c-.72 1.24.21 3.12 2.07 4.21 1.87 1.09 3.96.97 4.68-.26s-.21-3.11-2.07-4.2-3.96-.98-4.68.25z" fill="#b3a4a0"/><path d="m787.07 635.82c-.72 1.23.21 3.11 2.08 4.2 1.86 1.09 3.96.97 4.68-.25.71-1.24-.21-3.12-2.08-4.21-1.86-1.09-3.96-.97-4.68.26z" fill="#b3a4a0"/><path d="m768.74 650.98c-.72 1.23.21 3.11 2.07 4.2 1.87 1.09 3.96.97 4.68-.26s-.21-3.11-2.07-4.2c-1.87-1.09-3.96-.97-4.68.26z" fill="#b3a4a0"/><path d="m748.21 636.28c-.72 1.23.21 3.11 2.08 4.19 1.86 1.09 3.96.97 4.67-.26.72-1.23-.21-3.11-2.07-4.21-1.86-1.07-3.95-.96-4.68.28z" fill="#b3a4a0"/><path d="m692.94 556.59s4.74 12.84 4.1 21.92-17.34 51.79.21 66.53c14.38 12.08 33.47 11.17 43.2-8.11 9.2-18.23 13.05-50.23 28.36-60.68 4.99-3.4-75.87-19.66-75.87-19.66z" fill="#e0c7c1"/><path d="m697.47 564.32s7.99 16.81 7.66 28.18c-.56 19.5-14.96 43.64 6.79 49.14 23.31 5.9 23.05-23.71 30.54-38.95 5.99-12.17 19.8-22.62 19.8-22.62z" fill="#a58884"/><path d="m764.74 578.95c-10.62 4.82-17.91 15.63-28.87 18.8-3.72 1.08-7.89 1.28-12.76.05-5.68-1.44-9.41-3.9-12.14-7.05-6.5-7.43-7.43-18.71-15.53-29.33-10.81-14.22 10.03-26.86 41.64-18.87 30.06 7.61 43.93 29.04 27.66 36.4z" fill="#281e18"/><path d="m720.7 569.85c-6.94 5.11-16.72 3.62-21.83-3.32-5.11-6.95 4.91 4.99 11.86-.13 6.95-5.11 4.12-19.32 13.3-18.39 10.19 1.04 3.62 16.73-3.33 21.84z" fill="#0a0503"/><path d="m738.5 574.35c3.68 7.8 12.99 11.14 20.79 7.46 7.8-3.69-6.69 2.05-10.38-5.75-3.68-7.8 5.56-18.96-2.97-22.5-9.45-3.94-11.13 12.99-7.44 20.79z" fill="#0a0503"/><path d="m735.87 597.76c-3.72 1.08-7.89 1.28-12.76.05-5.68-1.44-9.41-3.9-12.14-7.05.76.4 9.39 6.22 13.54-2.75 3.83-8.27 11.17-42.27 12.09-42.04.86.22-8.79 30.91-9.34 42.97-.36 7.95 5.26 8.32 8.61 8.82z" fill="#0a0503"/><path d="m763.83 714.99c-.55.28-10.27-10.32-18.26-27.4-16.83-35.97-22.03-51.93-31.51-54.33-9.54-2.42-21.62 7.45-52.73 32.12-12.85 10.19-28.36 16.21-28.81 15.71 9.17-3.43 18.4-8.98 27.43-15.75 33.83-25.36 49.59-42.06 56.3-40.7 6.55 1.99 12.46 24.17 30.18 62.57 4.89 10.65 10.51 20.8 17.4 27.78z" fill="#383230"/><path d="m769.14 535.34c-.33 1.32-12.96-4.36-28.71-8.34-15.75-3.99-28.66-4.76-28.33-6.07s14.65-4.18 30.39-.2c15.75 3.98 26.98 13.3 26.65 14.61z" fill="#fcf8f7"/><path d="m1051.21 986.08c-18.22 19.73-41.83-19.49-70.16-59.03-39.55-55.18-40.01 18.21-56.56 16.09-16.01-2.04-20.56-20.54-43.38-27.13-21.87-6.31-68.36-1.23-65.91-44.75 3.1-55.01 64.97-51.06 66.52-88.13 1.38-33.11-14.02-65.67-12.38-83.64 6.34 13.93 14.85 28.16 25.4 42.83 38.62 53.7 40.25 89.66 50.9 112.73 9.22 19.95 60.8 76.97 105.57 131.03z" fill="#281e18"/><path d="m603.74 1122.94c-1.28 15.79-22.69 10.46-23.72 31.95-5.75-41.23-20.99-87.06-25.6-111.62-2.79-14.92-2.41-34.5-1.54-51.38-.2 7.6 5.03 35.57 10.88 51.04 12.96 34.26 41.75 58.09 39.98 80.01z" fill="#281e18"/><path d="m832.48 1321.41c-3.2-1.45-4.38-2.94-5.06-2.94-.11 0-.33.05-.64.14 0 0 5.05-2.87 5.05-15.31 0-15.11-3.67-23.91-2.87-23.91s3.72 12.64 4.02 24.37c.26 10.31-3.5 15.87-.5 17.65z" fill="#ccb5b0"/><path d="m833.77 1321.94c-.14-.05-.29-.11-.44-.17.19.06.33.12.44.17z" fill="#ccb5b0"/><path d="m884.06 1323.56c-9.33-1.73-11.09-5.89-11.69-5.89-.38 0-2.11 3.42-10.94 5.26.47-.18 9.3-3.42 9.18-17.67-.15-18.24-6.36-29.5-5.59-29.5.71 0 5.37 8.07 7.36 27.51 1.04 10.23 5.87 18.9 11.68 20.29z" fill="#ccb5b0"/><path d="m885.93 1323.85c-.39-.05-.76-.11-1.13-.16.41.04.79.1 1.13.16z" fill="#ccb5b0"/><path d="m932.86 1315.62c-4.85 2.47-11.23.57-12.51.75 0 0 4.11-4.43 1.15-17.89-3.3-14.98-17.4-25.48-16.94-26.09s12.57 7.89 17.94 25.35c4.18 13.59 5.69 19.18 10.36 17.88z" fill="#ccb5b0"/><g fill="#fff"><path d="m1286.98 1104.72-23.51-35.12-38.75-16.88 35.12-23.51 16.88-38.75 23.52 35.12 38.74 16.88-35.11 23.51z"/><path d="m365.38 738.94-23.52-35.12-38.74-16.88 35.11-23.52 16.88-38.74 23.52 35.12 38.75 16.87-35.12 23.52z"/><path d="m1044.37 211.99-23.51-35.12-38.75-16.88 35.12-23.52 16.88-38.74 23.52 35.12 38.74 16.87-35.12 23.52z"/><path d="m1151.92 979.44-13.62-20.33-22.44-9.78 20.34-13.62 9.77-22.44 13.62 20.34 22.44 9.77-20.34 13.62z"/><path d="m410.76 854.49-13.62-20.34-22.44-9.77 20.34-13.62 9.77-22.44 13.62 20.34 22.44 9.77-20.34 13.62z"/><path d="m891.27 197.18-13.62-20.33-22.44-9.78 20.34-13.62 9.77-22.44 13.62 20.34 22.44 9.78-20.34 13.62z"/><path d="m1283.52 836.34-7.64-11.4-12.58-5.48 11.4-7.64 5.49-12.58 7.63 11.41 12.58 5.48-11.4 7.64z"/><path d="m502.86 543.46-7.64-11.4-12.58-5.48 11.4-7.64 5.49-12.58 7.63 11.41 12.58 5.48-11.4 7.63z"/><path d="m474.54 1145.21-7.63-11.4-12.58-5.49 11.4-7.63 5.48-12.58 7.64 11.4 12.58 5.48-11.41 7.64z"/><path d="m987.32 671.5-7.64-11.4-12.58-5.48 11.4-7.63 5.48-12.58 7.64 11.4 12.58 5.48-11.4 7.64z"/><path d="m450.26 206-7.64-11.41-12.58-5.48 11.4-7.63 5.49-12.58 7.63 11.4 12.58 5.48-11.4 7.64z"/></g></svg>