<svg width="24" height="27" viewBox="0 0 24 27" fill="none" xmlns="http://www.w3.org/2000/svg">
<path d="M14.4901 0.503174H9.22097C4.13626 0.503174 0 4.63944 0 9.72414V13.676C0 17.2491 2.05825 20.4863 5.26913 22.0111V26.4141C5.26913 26.7961 5.74664 26.9937 6.01668 26.7237L9.84338 22.9003H14.4901C19.5748 22.9003 23.7111 18.764 23.7111 13.676V9.72414C23.7111 4.63944 19.5748 0.503174 14.4901 0.503174ZM17.9414 17.7862L16.6076 19.0903C15.2047 20.4636 11.5427 18.896 8.31534 15.5995C5.088 12.2998 3.67192 8.60478 5.00567 7.23152L6.33942 5.92741C6.8301 5.4466 7.66328 5.45648 8.21325 5.94717L10.1365 7.91321C10.8215 8.61466 10.5317 9.79034 9.62603 10.0604C9.00033 10.2613 8.5755 10.9495 8.77639 11.5753C9.109 13.0374 10.9631 14.8652 12.3462 15.2274C12.9686 15.3723 13.6668 15.0331 13.8841 14.4107C14.1707 13.5117 15.3529 13.2449 16.0412 13.9497L17.9611 15.9124C18.4419 16.4028 18.4354 17.2363 17.9414 17.7862ZM13.0543 6.76026C12.9225 6.76026 12.7908 6.76685 12.6624 6.78331C12.422 6.80966 12.2046 6.63512 12.1783 6.39471C12.1519 6.15431 12.3265 5.93696 12.5669 5.91061C12.7282 5.89086 12.8929 5.88427 13.0543 5.88427C15.4748 5.88427 17.4441 7.8536 17.4441 10.2741C17.4441 10.4355 17.4375 10.6001 17.4178 10.7615C17.3914 10.9986 17.1708 11.1764 16.9337 11.1501C16.6965 11.1238 16.5187 10.9031 16.5451 10.666C16.5582 10.5376 16.5681 10.4058 16.5681 10.2741C16.5681 8.3377 14.9907 6.76026 13.0543 6.76026ZM15.6888 10.2741C15.6888 10.5145 15.4879 10.7121 15.2475 10.7121C15.0104 10.7121 14.8095 10.5145 14.8095 10.2741C14.8095 9.30591 14.0225 8.51883 13.0543 8.51883C12.8106 8.51883 12.613 8.32124 12.613 8.07754C12.613 7.83714 12.8106 7.63955 13.0543 7.63955C14.5066 7.63955 15.6888 8.82181 15.6888 10.2741ZM19.038 11.6935C18.982 11.9306 18.7284 12.0788 18.4946 12.0162C18.2674 11.9536 18.1291 11.7165 18.1818 11.4893C18.2773 11.0941 18.3234 10.6858 18.3234 10.2741C18.3234 7.3695 15.9589 5.00498 13.0543 5.00498C12.9192 5.00498 12.7809 5.00828 12.6459 5.02145C12.4055 5.03792 12.1947 4.85679 12.175 4.61638C12.1585 4.37269 12.3396 4.16192 12.58 4.14546C12.7381 4.13228 12.8962 4.1257 13.0543 4.1257C16.443 4.1257 19.2027 6.8854 19.2027 10.2741C19.2027 10.7516 19.1467 11.2291 19.038 11.6935Z" fill="#665CAC"/>
</svg>
